<svg width="150" height="150" viewBox="0 0 150 150" fill="none" xmlns="http://www.w3.org/2000/svg">
<rect width="150" height="150" fill="#D9D9D9"/>
<path d="M43.4015 94V87.821L44.4314 87.7322C45.7571 87.6257 46.8284 87.1226 47.6452 86.223C48.4619 85.3116 49.0715 83.8615 49.474 81.8729C49.8883 79.8724 50.1546 77.1854 50.273 73.8118L50.8767 57.6364H75.5571V94H68.0819V63.7976H58.0145L57.4463 76.4574C57.2569 80.5294 56.7716 83.8556 55.9903 86.4361C55.2209 89.0166 53.9899 90.9223 52.2971 92.1534C50.6163 93.3845 48.314 94 45.3902 94H43.4015ZM106.026 57.6364V63.9751H89.5841V94H81.8959V57.6364H106.026Z" fill="black"/>
</svg>
