<svg width="400" height="80" viewBox="0 0 400 80" fill="none" xmlns="http://www.w3.org/2000/svg">
<rect width="400" height="80" fill="#D9D9D9"/>
<path d="M97.5519 58V51.821L98.5818 51.7322C99.9075 51.6257 100.979 51.1226 101.796 50.223C102.612 49.3116 103.222 47.8615 103.624 45.8729C104.039 43.8724 104.305 41.1854 104.423 37.8118L105.027 21.6364H129.707V58H122.232V27.7976H112.165L111.597 40.4574C111.407 44.5294 110.922 47.8556 110.141 50.4361C109.371 53.0166 108.14 54.9223 106.448 56.1534C104.767 57.3845 102.464 58 99.5406 58H97.5519ZM148.227 58.5327C145.469 58.5327 143.083 57.9467 141.071 56.7749C139.071 55.5911 137.526 53.9458 136.437 51.8388C135.348 49.7199 134.803 47.2637 134.803 44.4702C134.803 41.6529 135.348 39.1908 136.437 37.0838C137.526 34.965 139.071 33.3196 141.071 32.1477C143.083 30.964 145.469 30.3722 148.227 30.3722C150.985 30.3722 153.364 30.964 155.364 32.1477C157.377 33.3196 158.927 34.965 160.016 37.0838C161.105 39.1908 161.65 41.6529 161.65 44.4702C161.65 47.2637 161.105 49.7199 160.016 51.8388C158.927 53.9458 157.377 55.5911 155.364 56.7749C153.364 57.9467 150.985 58.5327 148.227 58.5327ZM148.262 52.6733C149.517 52.6733 150.564 52.3182 151.405 51.608C152.245 50.8859 152.879 49.9034 153.305 48.6605C153.743 47.4176 153.962 46.0031 153.962 44.4169C153.962 42.8307 153.743 41.4162 153.305 40.1733C152.879 38.9304 152.245 37.9479 151.405 37.2259C150.564 36.5038 149.517 36.1428 148.262 36.1428C146.996 36.1428 145.93 36.5038 145.066 37.2259C144.214 37.9479 143.569 38.9304 143.131 40.1733C142.705 41.4162 142.492 42.8307 142.492 44.4169C142.492 46.0031 142.705 47.4176 143.131 48.6605C143.569 49.9034 144.214 50.8859 145.066 51.608C145.93 52.3182 146.996 52.6733 148.262 52.6733ZM185.247 30.7273V36.6754H173.919V58H166.568V30.7273H185.247ZM201.205 58.5327C198.447 58.5327 196.062 57.9467 194.05 56.7749C192.049 55.5911 190.504 53.9458 189.415 51.8388C188.326 49.7199 187.782 47.2637 187.782 44.4702C187.782 41.6529 188.326 39.1908 189.415 37.0838C190.504 34.965 192.049 33.3196 194.05 32.1477C196.062 30.964 198.447 30.3722 201.205 30.3722C203.963 30.3722 206.342 30.964 208.343 32.1477C210.355 33.3196 211.906 34.965 212.995 37.0838C214.084 39.1908 214.628 41.6529 214.628 44.4702C214.628 47.2637 214.084 49.7199 212.995 51.8388C211.906 53.9458 210.355 55.5911 208.343 56.7749C206.342 57.9467 203.963 58.5327 201.205 58.5327ZM201.241 52.6733C202.495 52.6733 203.543 52.3182 204.383 51.608C205.224 50.8859 205.857 49.9034 206.283 48.6605C206.721 47.4176 206.94 46.0031 206.94 44.4169C206.94 42.8307 206.721 41.4162 206.283 40.1733C205.857 38.9304 205.224 37.9479 204.383 37.2259C203.543 36.5038 202.495 36.1428 201.241 36.1428C199.974 36.1428 198.909 36.5038 198.045 37.2259C197.192 37.9479 196.547 38.9304 196.109 40.1733C195.683 41.4162 195.47 42.8307 195.47 44.4169C195.47 46.0031 195.683 47.4176 196.109 48.6605C196.547 49.9034 197.192 50.8859 198.045 51.608C198.909 52.3182 199.974 52.6733 201.241 52.6733ZM216.906 36.6754V30.7273H241.622V36.6754H232.832V58H225.624V36.6754H216.906ZM253.434 48.0213L263.252 30.7273H270.71V58H263.501V40.6527L253.718 58H246.207V30.7273H253.434V48.0213ZM276.773 58V30.7273H300.619V58H293.393V36.6754H283.911V58H276.773Z" fill="black"/>
</svg>
